<?xml version="1.0" encoding="UTF-8"?>
<svg version="1.1" xmlns="http://www.w3.org/2000/svg" width="707" height="353">
<path d="M0 0 C35.31 0 70.62 0 107 0 C107.78096309 3.12385237 108.12664745 5.18830994 108.13371277 8.3019104 C108.14011024 9.58056725 108.14011024 9.58056725 108.14663696 10.88505554 C108.14595718 12.27540764 108.14595718 12.27540764 108.14526367 13.69384766 C108.14862228 14.6763298 108.1519809 15.65881195 108.15544128 16.67106628 C108.16494117 19.91874454 108.16689362 23.16637122 108.16796875 26.4140625 C108.17118092 28.66799949 108.17454496 30.92193626 108.17805481 33.1758728 C108.1840429 37.89850346 108.18589493 42.62111582 108.18530273 47.34375 C108.18520088 53.40811194 108.19887829 59.47235739 108.21607494 65.53669167 C108.22716574 70.18967228 108.22922288 74.84262442 108.22869301 79.49561691 C108.22987657 81.73241962 108.23431927 83.96922298 108.24202538 86.20601273 C108.25177067 89.32574011 108.24896943 92.44521031 108.24291992 95.56494141 C108.24853943 96.49589127 108.25415894 97.42684113 108.25994873 98.38600159 C108.25575424 99.23279984 108.25155975 100.07959808 108.24723816 100.95205688 C108.24778293 101.68982676 108.24832769 102.42759663 108.24888897 103.18772316 C108 105 108 105 106 107 C103.74957275 107.23399353 103.74957275 107.23399353 100.87597656 107.21069336 C99.78218689 107.20654922 98.68839722 107.20240509 97.5614624 107.19813538 C95.74439789 107.17546852 95.74439789 107.17546852 93.890625 107.15234375 C92.6146344 107.14404037 91.3386438 107.135737 90.02398682 107.12718201 C86.44994928 107.10305031 82.87616322 107.0653564 79.30227661 107.02498627 C76.1552423 106.99083197 73.00815913 106.96373284 69.8610611 106.93619728 C60.56350764 106.85401539 51.26639304 106.7461469 41.96923828 106.62768555 C37.54561827 106.57153372 33.12194803 106.52177749 28.69823837 106.47328281 C25.26000599 106.43453581 21.82183865 106.39142676 18.38367462 106.34705925 C16.7489439 106.32670447 15.11419201 106.3079803 13.47942352 106.29092598 C11.22675517 106.26700921 8.97425075 106.2369713 6.72167969 106.20532227 C5.44347351 106.18977798 4.16526733 106.1742337 2.84832764 106.15821838 C0 106 0 106 -1 105 C-1.13609356 101.88639572 -1.20740065 98.79376266 -1.23706055 95.6784668 C-1.25017273 94.69963531 -1.26328491 93.72080383 -1.27679443 92.71231079 C-1.31876836 89.45798743 -1.35317088 86.20363922 -1.38671875 82.94921875 C-1.41235966 80.69578391 -1.43814371 78.44235069 -1.46406555 76.18891907 C-1.51712762 71.45678723 -1.56603881 66.72463217 -1.61254883 61.99243164 C-1.67287874 55.92247025 -1.74709893 49.85276654 -1.82492352 43.78300762 C-1.88247965 39.12572022 -1.93079946 34.46837049 -1.976511 29.81095314 C-1.99994951 27.57297908 -2.02671289 25.33503733 -2.05682945 23.09714317 C-2.09792006 19.96801019 -2.12614426 16.83901415 -2.15112305 13.7097168 C-2.16609329 12.78124435 -2.18106354 11.85277191 -2.19648743 10.89616394 C-2.20070709 10.04228088 -2.20492676 9.18839783 -2.20927429 8.30863953 C-2.2171934 7.56881679 -2.22511251 6.82899405 -2.2332716 6.06675243 C-2 4 -2 4 0 0 Z M8 10 C7.97687731 21.19573244 7.95908529 32.39145924 7.94818783 43.58721066 C7.94295884 48.78528115 7.9358609 53.98333536 7.92456055 59.18139648 C7.91373224 64.19342268 7.90772329 69.20543318 7.90512276 74.21747017 C7.90326841 76.13412282 7.8996476 78.05077457 7.89426994 79.96742058 C7.88706025 82.64228072 7.88600903 85.31707514 7.88647461 87.99194336 C7.88287933 88.7925116 7.87928406 89.59307983 7.87557983 90.41790771 C7.54576179 94.00509902 7.54576179 94.00509902 9 97 C11.76938966 97.09517803 14.51377159 97.12554265 17.28344727 97.11352539 C18.15166107 97.11367142 19.01987488 97.11381744 19.91439819 97.1139679 C22.79842586 97.11326846 25.6823898 97.10547463 28.56640625 97.09765625 C30.56037867 97.09579218 32.55435155 97.09436823 34.54832458 97.09336853 C39.80745702 97.08954248 45.06656203 97.07971145 50.32568359 97.06866455 C55.68782175 97.0584523 61.04996431 97.05387131 66.41210938 97.04882812 C76.94141833 97.03808926 87.47070689 97.0210118 98 97 C98.58243392 87.87463451 99.15615948 78.77680031 99.1328125 69.62890625 C99.13424759 68.29254372 99.13424759 68.29254372 99.13571167 66.92918396 C99.13638227 65.06842985 99.13460785 63.20767323 99.13037109 61.34692383 C99.12506551 58.59645928 99.13032519 55.84616241 99.13671875 53.09570312 C99.14149245 38.71396883 98.63603259 24.36649156 98 10 C86.70849533 9.84626804 75.41693289 9.6980864 64.12526226 9.5570364 C58.88237704 9.49136944 53.63953133 9.42377387 48.39672852 9.35180664 C43.33935797 9.28245517 38.28194644 9.21812285 33.22446632 9.15730476 C31.29269902 9.1331857 29.36095363 9.10724265 27.42923546 9.07946587 C24.72849325 9.0409393 22.02774669 9.00883509 19.3269043 8.97827148 C18.52417587 8.96532547 17.72144745 8.95237946 16.89439392 8.93904114 C13.65123482 8.90802841 11.10126075 8.96624642 8 10 Z " fill="#FAFAFA" transform="translate(40,114)"/>
<path d="M0 0 C1.91541138 -0.10841951 3.83259773 -0.18578079 5.75 -0.25 C7.35101562 -0.31960937 7.35101562 -0.31960937 8.984375 -0.390625 C12 0 12 0 14.26953125 1.70703125 C16.08561469 4.1134443 17.00481714 6.07927834 17.9375 8.9375 C18.27265625 9.91976562 18.6078125 10.90203125 18.953125 11.9140625 C19.29859375 12.93242187 19.6440625 13.95078125 20 15 C23.34016959 24.04836987 27.00514517 32.96312833 30.7019043 41.87036133 C32.98190887 47.39381599 35.10430487 52.94758785 37.08569336 58.58544922 C37.94205702 60.99062914 37.94205702 60.99062914 39.10375977 63.11767578 C40.37733302 65.79249186 40.19444131 68.08338042 40 71 C38.05663221 72.94336779 34.7079005 72.30633393 32.125 72.375 C30.86945313 72.42398438 29.61390625 72.47296875 28.3203125 72.5234375 C25 72 25 72 23.1796875 69.9140625 C21.87740631 66.69716922 20.95341842 63.33696448 20 60 C11.09 59.67 2.18 59.34 -7 59 C-7.33 60.98 -7.66 62.96 -8 65 C-11.04761905 70.04761905 -11.04761905 70.04761905 -13 72 C-15.35313555 72.07271741 -17.70833668 72.08370868 -20.0625 72.0625 C-21.99802734 72.04896484 -21.99802734 72.04896484 -23.97265625 72.03515625 C-24.97167969 72.02355469 -25.97070312 72.01195312 -27 72 C-27.20181043 67.68630196 -26.74205419 64.69381712 -25 60.75 C-23.47527625 57.48522479 -23.47527625 57.48522479 -23 54 C-25.63964464 55.14146795 -27.54083804 56.14341214 -28.9296875 58.734375 C-29.70831668 60.80536808 -30.3799189 62.87622222 -31 65 C-31.20625 65.68578125 -31.4125 66.3715625 -31.625 67.078125 C-32.10349516 68.71298347 -32.5546935 70.35579139 -33 72 C-34.98 72 -36.96 72 -39 72 C-39.6875 69.6875 -39.6875 69.6875 -40 67 C-39.35804688 66.41605469 -39.35804688 66.41605469 -38.703125 65.8203125 C-36.13459785 63.07505183 -35.25740708 59.68347481 -34.0625 56.1875 C-32.63459696 52.01155714 -31.31163865 48.45855402 -28.8125 44.78125 C-26.87228876 41.80402931 -26.60442139 40.75431233 -26.9375 37.3125 C-27.17217615 31.09827563 -26.58277694 24.27730519 -22.60546875 19.23046875 C-19.81410094 16.77830513 -17.62444022 15.90611006 -14 15 C-13.67 12.03 -13.34 9.06 -13 6 C-9.625 5.375 -9.625 5.375 -6 5 C-5.34 5.66 -4.68 6.32 -4 7 C-2.68 4.69 -1.36 2.38 0 0 Z M-8 14 C-11.32950503 17.80514861 -13.34000863 20.29338698 -13.3125 25.4375 C-13.209375 26.613125 -13.10625 27.78875 -13 29 C-13.639375 29.103125 -14.27875 29.20625 -14.9375 29.3125 C-15.9584375 29.6528125 -15.9584375 29.6528125 -17 30 C-18.25541557 33.76624671 -17.37061958 35.37188934 -16 39 C-14.28012028 36.42018041 -13.1971796 34.25063609 -12.0546875 31.40234375 C-11.70019531 30.51869141 -11.34570312 29.63503906 -10.98046875 28.72460938 C-10.61566406 27.80486328 -10.25085938 26.88511719 -9.875 25.9375 C-9.50246094 25.01388672 -9.12992188 24.09027344 -8.74609375 23.13867188 C-8.21822266 21.81512695 -8.21822266 21.81512695 -7.6796875 20.46484375 C-7.35726074 19.656521 -7.03483398 18.84819824 -6.70263672 18.01538086 C-5.89026541 16.04097236 -5.89026541 16.04097236 -6 14 C-6.66 14 -7.32 14 -8 14 Z M6 25 C5.20558928 26.87383903 4.41460026 28.74912886 3.625 30.625 C3.18414063 31.66914063 2.74328125 32.71328125 2.2890625 33.7890625 C1.0744533 36.81454359 0.03096127 39.9071162 -1 43 C3.62 43 8.24 43 13 43 C12.27524546 38.65147278 11.53352579 35.24531077 10.0625 31.1875 C9.55396484 29.75470703 9.55396484 29.75470703 9.03515625 28.29296875 C8.22169065 25.84784796 8.22169065 25.84784796 6 25 Z M-17 39 C-18.87543354 42.86763446 -18.87543354 42.86763446 -18 47 C-16.12456646 43.13236554 -16.12456646 43.13236554 -17 39 Z M-20 47 C-20.33 48.32 -20.66 49.64 -21 51 C-20.34 49.68 -19.68 48.36 -19 47 C-19.33 47 -19.66 47 -20 47 Z M-22 51 C-21 53 -21 53 -21 53 Z " fill="#FBFBFB" transform="translate(546,133)"/>
<path d="M0 0 C8.21435531 6.06560766 12.88091835 13.39739205 15.23828125 23.3046875 C16.28888713 34.49486174 15.34894155 44.60846921 8.11328125 53.5546875 C-0.9017443 62.85681578 -8.83708714 66.00958445 -21.66015625 66.43359375 C-30.89270912 66.41039361 -38.56697117 64.58870753 -45.76171875 58.3046875 C-46.1187532 56.97750428 -46.45510034 55.64441659 -46.76171875 54.3046875 C-48.07727758 53.60359751 -49.41272424 52.93906596 -50.76171875 52.3046875 C-56.78538272 44.76678756 -59.26485435 36.41567065 -58.5859375 26.8203125 C-57.16141956 17.78397649 -52.76037655 9.25354663 -45.76171875 3.3046875 C-44.91609375 2.4590625 -44.07046875 1.6134375 -43.19921875 0.7421875 C-31.04420732 -9.05624008 -12.70245889 -7.79754902 0 0 Z M-37.76171875 16.3046875 C-41.89377436 22.50277092 -42.68573493 27.97153784 -41.76171875 35.3046875 C-39.75486183 42.10462017 -36.34968415 46.65593322 -30.2265625 50.2421875 C-25.51208932 52.27441683 -20.77820657 53.0837028 -15.75 51.78515625 C-13.67152328 50.98274985 -13.67152328 50.98274985 -10.76171875 49.3046875 C-9.89546875 48.8921875 -9.02921875 48.4796875 -8.13671875 48.0546875 C-3.8210635 44.874731 -0.70715864 40.63263524 0.23828125 35.3046875 C0.73137577 29.02721499 0.93534072 23.65904949 -2.76171875 18.3046875 C-7.65055268 12.75520033 -12.84869352 8.71658489 -20.32421875 7.9296875 C-26.95860757 8.02761206 -33.40251494 11.3411103 -37.76171875 16.3046875 Z " fill="#FCFCFC" transform="translate(220.76171875,139.6953125)"/>
<path d="M0 0 C0.75412397 -0.00205263 1.50824793 -0.00410527 2.28522414 -0.0062201 C4.838568 -0.01192143 7.39185845 -0.01042902 9.9452076 -0.00901413 C11.78374453 -0.01159597 13.62228091 -0.01460862 15.4608165 -0.01801753 C20.53368007 -0.02611201 25.60652951 -0.02787846 30.67939878 -0.028615 C36.14234439 -0.03046129 41.6052826 -0.03800643 47.06822395 -0.04475021 C59.02253731 -0.05835105 70.97684732 -0.06436087 82.93116713 -0.06876087 C90.38974739 -0.07152013 97.84832636 -0.07575687 105.30690575 -0.08026505 C125.94136346 -0.0924596 146.57582013 -0.1027588 167.21028137 -0.10614014 C168.54510776 -0.10636177 169.87993416 -0.10658356 171.21476055 -0.10680549 C172.55285021 -0.10702613 173.89093987 -0.10724661 175.22902954 -0.10746694 C177.91356651 -0.10790949 180.59810348 -0.10835661 183.28264046 -0.10880661 C183.94825149 -0.108916 184.61386252 -0.10902539 185.29964359 -0.1091381 C206.89014084 -0.11277007 228.48060455 -0.12869503 250.07108896 -0.15199697 C272.88606572 -0.17657556 295.70102795 -0.19030531 318.51601899 -0.19150805 C330.95755099 -0.19242636 343.39903907 -0.19821765 355.84055901 -0.21632767 C366.43254819 -0.23169074 377.02447987 -0.23687161 387.61647807 -0.22858956 C393.02449244 -0.22466967 398.43239089 -0.22567765 403.84039116 -0.23964691 C408.78615246 -0.25230582 413.73170977 -0.25125941 418.67747046 -0.2390562 C420.47154996 -0.23708522 422.26564353 -0.24024155 424.05970322 -0.24890056 C426.48931313 -0.25988935 428.91818986 -0.25257987 431.34777832 -0.24050903 C432.05223664 -0.24810423 432.75669495 -0.25569942 433.48250049 -0.26352477 C436.51701922 -0.23074226 438.57673037 0.0106241 441.2654773 1.46717381 C442.7997303 3.13142776 442.7997303 3.13142776 442.7997303 6.13142776 C385.81229113 6.17717409 328.82485377 6.21243519 271.83739986 6.23355842 C265.11431271 6.23605314 258.3912256 6.23864625 251.6681385 6.24129105 C250.99910277 6.24155256 250.33006704 6.24181408 249.6407575 6.24208353 C227.9468902 6.25060953 206.25303331 6.26563461 184.55917232 6.28402221 C161.63842851 6.30341446 138.71768885 6.3154178 115.79693669 6.31960475 C102.06212982 6.32235328 88.32735281 6.33104409 74.59255513 6.3472607 C65.18275698 6.35780697 55.77297435 6.36103375 46.36317072 6.35843052 C40.92874072 6.35714555 35.49436302 6.35915873 30.05994225 6.36983871 C25.08879998 6.37953724 20.11774542 6.38008486 15.1465992 6.37322555 C13.34436697 6.37237719 11.54212937 6.37494297 9.73990778 6.38119413 C7.29701395 6.38917756 4.85444002 6.38492006 2.41155148 6.37752342 C1.70593979 6.38277745 1.0003281 6.38803148 0.27333423 6.39344472 C-3.65640771 6.36641324 -6.65828555 5.85428102 -10.2002697 4.13142776 C-9.8702697 3.14142776 -9.5402697 2.15142776 -9.2002697 1.13142776 C-6.2421542 -0.34762998 -3.24304767 -0.00809216 0 0 Z " fill="#F9F9F9" transform="translate(172.20026969909668,219.86857223510742)"/>
<path d="M0 0 C1.30710937 0.13535156 1.30710937 0.13535156 2.640625 0.2734375 C4.75 0.625 4.75 0.625 5.75 1.625 C5.84943972 3.70575409 5.87799596 5.78991848 5.87939453 7.87304688 C5.88114685 8.52507584 5.88289917 9.1771048 5.88470459 9.84889221 C5.88912204 12.01387153 5.88618551 14.17876979 5.8828125 16.34375 C5.88348557 17.84208187 5.88445562 19.34041363 5.88571167 20.83874512 C5.8871885 23.98283933 5.88503458 27.12690517 5.88037109 30.27099609 C5.8746738 34.30986539 5.87795289 38.34866824 5.88394356 42.3875351 C5.88754958 45.4826508 5.88641039 48.57775065 5.88381577 51.67286682 C5.88314661 53.16248075 5.88397452 54.6520961 5.88629532 56.14170837 C5.88882253 58.22016235 5.88498033 60.29850731 5.87939453 62.37695312 C5.87859894 63.56196411 5.87780334 64.7469751 5.87698364 65.96789551 C5.75 68.625 5.75 68.625 4.75 69.625 C2.41839945 69.72409302 0.08370058 69.75470504 -2.25 69.75 C-3.52875 69.75257813 -4.8075 69.75515625 -6.125 69.7578125 C-9.25 69.625 -9.25 69.625 -10.25 68.625 C-10.40825258 66.62717874 -10.50119171 64.62411166 -10.56640625 62.62109375 C-10.60830078 61.40615234 -10.65019531 60.19121094 -10.69335938 58.93945312 C-10.73267578 57.66005859 -10.77199219 56.38066406 -10.8125 55.0625 C-10.85568359 53.77923828 -10.89886719 52.49597656 -10.94335938 51.17382812 C-11.04984719 47.99102555 -11.15046421 44.80802757 -11.25 41.625 C-18.18 41.625 -25.11 41.625 -32.25 41.625 C-32.064375 43.295625 -31.87875 44.96625 -31.6875 46.6875 C-31.06370864 54.04999522 -31.37795992 61.29017401 -32.25 68.625 C-33.25 69.625 -33.25 69.625 -36.19140625 69.72265625 C-37.38636719 69.71105469 -38.58132812 69.69945312 -39.8125 69.6875 C-41.01003906 69.67847656 -42.20757812 69.66945313 -43.44140625 69.66015625 C-44.83166016 69.64275391 -44.83166016 69.64275391 -46.25 69.625 C-47.65321331 66.81857338 -47.37725084 64.49433084 -47.37939453 61.35522461 C-47.38254669 60.03723373 -47.38569885 58.71924286 -47.38894653 57.36131287 C-47.38715689 55.91665616 -47.38510597 54.47199975 -47.3828125 53.02734375 C-47.38348577 51.55286137 -47.38445599 50.0783791 -47.38571167 48.60389709 C-47.38718708 45.5128575 -47.38503881 42.42184679 -47.38037109 39.33081055 C-47.3746689 35.3603508 -47.37795689 31.38995858 -47.38394356 27.4195013 C-47.38754914 24.37499987 -47.38641069 21.33051456 -47.38381577 18.28601265 C-47.38314675 16.8215185 -47.38397405 15.3570229 -47.38629532 13.89253044 C-47.3888223 11.85014752 -47.38429088 9.80775948 -47.37939453 7.76538086 C-47.37859894 6.60115097 -47.37780334 5.43692108 -47.37698364 4.2374115 C-47.25 1.625 -47.25 1.625 -46.25 0.625 C-43.89686445 0.55228259 -41.54166332 0.54129132 -39.1875 0.5625 C-37.89714844 0.57152344 -36.60679688 0.58054688 -35.27734375 0.58984375 C-34.27832031 0.60144531 -33.27929688 0.61304688 -32.25 0.625 C-31.26956036 3.56631891 -31.13378798 5.45001665 -31.15234375 8.51171875 C-31.15484131 9.35694092 -31.15733887 10.20216309 -31.15991211 11.07299805 C-31.16901611 12.14203369 -31.17812012 13.21106934 -31.1875 14.3125 C-31.208125 17.715625 -31.22875 21.11875 -31.25 24.625 C-24.32 24.955 -17.39 25.285 -10.25 25.625 C-10.25 17.375 -10.25 9.125 -10.25 0.625 C-6.19376385 -0.18624723 -3.93410279 -0.43581378 0 0 Z " fill="#FCFCFC" transform="translate(114.25,133.375)"/>
<path d="M0 0 C1.15048828 0.00773438 1.15048828 0.00773438 2.32421875 0.015625 C3.08347656 0.01046875 3.84273438 0.0053125 4.625 0 C7.35482299 0.30381009 9.4880644 1.20993077 12.01171875 2.265625 C12.03153809 3.50127197 12.05135742 4.73691895 12.07177734 6.01000977 C12.14812449 10.61535249 12.23679632 15.22039122 12.32910156 19.82543945 C12.36727136 21.814636 12.40214473 23.80389874 12.43359375 25.79321289 C12.47950572 28.6605589 12.53745622 31.52745388 12.59765625 34.39453125 C12.60920746 35.27710098 12.62075867 36.15967072 12.63265991 37.06898499 C12.75325914 42.16945221 13.39562221 46.42395553 15.01171875 51.265625 C15.35307802 52.59692615 15.69097831 53.92920648 16.01171875 55.265625 C22.64019891 55.89937038 22.64019891 55.89937038 28.57421875 53.515625 C30.79778614 50.03525865 31.13457501 46.8800451 31.20117188 42.80419922 C31.22624817 41.49296585 31.22624817 41.49296585 31.25183105 40.15524292 C31.26540649 39.21971588 31.27898193 38.28418884 31.29296875 37.3203125 C31.31137817 36.35408966 31.3297876 35.38786682 31.34875488 34.3923645 C31.42738999 30.26022328 31.49531744 26.12792283 31.56396484 21.99560547 C31.61561185 18.97875724 31.67287682 15.96205213 31.73046875 12.9453125 C31.74404419 12.005737 31.75761963 11.0661615 31.77160645 10.09811401 C31.79668274 8.79633713 31.79668274 8.79633713 31.82226562 7.46826172 C31.8347937 6.70311249 31.84732178 5.93796326 31.86022949 5.14962769 C32.01171875 3.265625 32.01171875 3.265625 33.01171875 1.265625 C35.49095676 1.23877405 37.96990715 1.21885953 40.44921875 1.203125 C41.15626953 1.19474609 41.86332031 1.18636719 42.59179688 1.17773438 C44.39865434 1.16908912 46.20559478 1.21342489 48.01171875 1.265625 C50.16933863 3.42324488 49.1759991 8.42156979 49.1796875 11.41796875 C49.1846801 12.81191612 49.1846801 12.81191612 49.18977356 14.23402405 C49.19485095 16.21045435 49.19718164 18.18689326 49.19702148 20.16333008 C49.19918697 23.15916598 49.21727516 26.15462101 49.23632812 29.15039062 C49.23926625 31.07291541 49.24124824 32.99544195 49.2421875 34.91796875 C49.24937302 35.80379135 49.25655853 36.68961395 49.26396179 37.60227966 C49.22641678 48.05939638 47.84063777 57.38546274 40.234375 65.05859375 C32.67144757 71.79007884 24.04331786 71.036945 14.32617188 70.52197266 C9.35802894 69.97170366 6.20590221 68.01179869 3.01171875 64.265625 C-1.06036401 58.62937312 -4.10216563 53.52015764 -4.13354492 46.45874023 C-4.13992477 45.48440536 -4.14630463 44.5100705 -4.15287781 43.50621033 C-4.15399063 42.45615311 -4.15510345 41.40609589 -4.15625 40.32421875 C-4.1595784 39.24560074 -4.1629068 38.16698273 -4.16633606 37.05567932 C-4.17139996 34.775161 -4.17374455 32.49463527 -4.17358398 30.21411133 C-4.17577471 26.71358158 -4.19394787 23.21336477 -4.21289062 19.71289062 C-4.21582373 17.50000108 -4.21780908 15.28711004 -4.21875 13.07421875 C-4.22593552 12.0221373 -4.23312103 10.97005585 -4.24052429 9.88609314 C-4.23744766 8.91491043 -4.23437103 7.94372772 -4.23120117 6.94311523 C-4.23262619 6.08612534 -4.23405121 5.22913544 -4.23551941 4.34617615 C-3.89005713 1.43905229 -2.91809539 0.38984379 0 0 Z " fill="#FBFBFB" transform="translate(273.98828125,134.734375)"/>
<path d="M0 0 C0.85948746 -0.0033284 1.71897491 -0.0066568 2.60450745 -0.01008606 C4.42619286 -0.01515895 6.24788761 -0.01749427 8.06958008 -0.01733398 C10.86359915 -0.01951928 13.65722282 -0.03766769 16.45117188 -0.05664062 C18.21744656 -0.05957465 19.98372313 -0.06155939 21.75 -0.0625 C23.00942665 -0.07327827 23.00942665 -0.07327827 24.29429626 -0.08427429 C30.21258444 -0.06085306 30.21258444 -0.06085306 32.44140625 2.16796875 C32.70703125 4.48046875 32.70703125 4.48046875 32.69140625 7.16796875 C32.69914062 8.49828125 32.69914062 8.49828125 32.70703125 9.85546875 C32.44140625 12.16796875 32.44140625 12.16796875 30.44140625 14.16796875 C27.91943359 14.39501953 27.91943359 14.39501953 24.77734375 14.36328125 C23.65585937 14.35683594 22.534375 14.35039062 21.37890625 14.34375 C20.20328125 14.32699219 19.02765625 14.31023437 17.81640625 14.29296875 C16.63304687 14.28394531 15.4496875 14.27492187 14.23046875 14.265625 C11.30069568 14.2419978 8.37102611 14.20612588 5.44140625 14.16796875 C5.44140625 17.79796875 5.44140625 21.42796875 5.44140625 25.16796875 C7.87966797 25.13316406 7.87966797 25.13316406 10.3671875 25.09765625 C12.49608917 25.07889941 14.62499579 25.06069912 16.75390625 25.04296875 C17.82576172 25.02621094 18.89761719 25.00945312 20.00195312 24.9921875 C21.02998047 24.98574219 22.05800781 24.97929687 23.1171875 24.97265625 C24.06505127 24.96218262 25.01291504 24.95170898 25.98950195 24.94091797 C28.44140625 25.16796875 28.44140625 25.16796875 31.44140625 27.16796875 C31.76953125 29.69921875 31.76953125 29.69921875 31.69140625 32.66796875 C31.6759375 33.64765625 31.66046875 34.62734375 31.64453125 35.63671875 C31.44140625 38.16796875 31.44140625 38.16796875 30.44140625 40.16796875 C22.19140625 40.16796875 13.94140625 40.16796875 5.44140625 40.16796875 C5.77140625 44.45796875 6.10140625 48.74796875 6.44140625 53.16796875 C9.00535156 53.24144531 9.00535156 53.24144531 11.62109375 53.31640625 C13.85288154 53.39142433 16.08465155 53.46697256 18.31640625 53.54296875 C20.00830078 53.589375 20.00830078 53.589375 21.734375 53.63671875 C23.34892578 53.69472656 23.34892578 53.69472656 24.99609375 53.75390625 C25.99108887 53.78532715 26.98608398 53.81674805 28.01123047 53.84912109 C30.44140625 54.16796875 30.44140625 54.16796875 32.44140625 56.16796875 C32.7421875 58.4453125 32.7421875 58.4453125 32.75390625 61.10546875 C32.77066406 61.98074219 32.78742188 62.85601562 32.8046875 63.7578125 C32.36617776 66.66706526 31.70531508 67.35795316 29.44140625 69.16796875 C26.51142326 69.44186907 23.79858209 69.54057552 20.87109375 69.49609375 C20.03426056 69.49422058 19.19742737 69.49234741 18.3352356 69.49041748 C16.56833912 69.48369916 14.80145747 69.46978898 13.03466797 69.44921875 C10.31984757 69.41800831 7.60560717 69.40824268 4.890625 69.40234375 C3.17577412 69.3931761 1.46092917 69.38280109 -0.25390625 69.37109375 C-1.07053741 69.36684387 -1.88716858 69.36259399 -2.72854614 69.35821533 C-8.44142917 69.28513333 -8.44142917 69.28513333 -9.55859375 68.16796875 C-9.65803347 66.08721466 -9.68658971 64.00305027 -9.68798828 61.91992188 C-9.6897406 61.26789291 -9.69149292 60.61586395 -9.69329834 59.94407654 C-9.69771579 57.77909722 -9.69477926 55.61419896 -9.69140625 53.44921875 C-9.69207932 51.95088688 -9.69304937 50.45255512 -9.69430542 48.95422363 C-9.69578225 45.81012942 -9.69362833 42.66606358 -9.68896484 39.52197266 C-9.68326755 35.48310336 -9.68654664 31.44430051 -9.69253731 27.40543365 C-9.69614333 24.31031795 -9.69500414 21.2152181 -9.69240952 18.12010193 C-9.69174036 16.630488 -9.69256827 15.14087265 -9.69488907 13.65126038 C-9.69741628 11.5728064 -9.69357408 9.49446144 -9.68798828 7.41601562 C-9.68719269 6.23100464 -9.68639709 5.04599365 -9.68557739 3.82507324 C-9.41791242 -1.77575684 -4.45246337 0.00588707 0 0 Z " fill="#FCFCFC" transform="translate(447.55859375,135.83203125)"/>
<path d="M0 0 C2.44027965 2.19155884 4.0821987 4.30471169 6 7 C4.22886882 10.78488307 2.23562812 13.29110204 -1 16 C-3.4375 16.625 -3.4375 16.625 -6 16 C-6.94875 15.154375 -7.8975 14.30875 -8.875 13.4375 C-11.85007382 10.57040322 -11.85007382 10.57040322 -15.875 11.1875 C-16.90625 11.455625 -17.9375 11.72375 -19 12 C-19.58044686 14.81391814 -19.58044686 14.81391814 -19 18 C-16.65409657 19.79883504 -14.65597106 21.04813643 -12.0625 22.375 C-3.71798168 26.99772939 5.79693915 32.35900415 8.6171875 42.140625 C9.33059872 47.9776259 8.81234755 52.76617355 6 58 C2.57057003 62.3384355 -1.38569276 66.52796661 -7.10302734 67.2746582 C-9.52753291 67.30302274 -11.95030506 67.32174045 -14.375 67.3125 C-15.21289062 67.32861328 -16.05078125 67.34472656 -16.9140625 67.36132812 C-24.41258636 67.36722319 -29.43210174 65.11644705 -35 60 C-38.10063621 55.86581839 -38.10063621 55.86581839 -37.7734375 53.05078125 C-36.36112196 49.30600519 -33.32800715 47.07735478 -30 45 C-27.3125 44.8125 -27.3125 44.8125 -25 46 C-22.8125 48.5 -22.8125 48.5 -21 51 C-17.81538141 52.5923093 -14.46608511 52.38905037 -11 52 C-8.82499353 50.99511774 -8.82499353 50.99511774 -8 49 C-7.86479295 46.56530069 -7.86479295 46.56530069 -9 44 C-11.34949625 42.22553497 -13.5307975 40.76519733 -16.0625 39.3125 C-18.4213738 37.92560141 -20.71045254 36.50371569 -23 35 C-23 34.34 -23 33.68 -23 33 C-23.86625 32.855625 -24.7325 32.71125 -25.625 32.5625 C-30.55030104 30.28226804 -32.63824378 26.7927496 -35 22 C-36.72088062 16.6159583 -36.23115651 11.14091362 -34 6 C-31.0373771 1.14324114 -27.59463868 -1.90503373 -22.125 -3.5625 C-14.24060246 -5.18575832 -7.10343075 -3.80384332 0 0 Z " fill="#FBFBFB" transform="translate(394,138)"/>
<path d="M0 0 C1.45599609 0.00773438 1.45599609 0.00773438 2.94140625 0.015625 C3.90949219 0.01046875 4.87757813 0.0053125 5.875 0 C8.50390625 0.265625 8.50390625 0.265625 11.50390625 2.265625 C11.90342526 5.07648539 12.10631742 7.67550222 12.18359375 10.5 C12.21661591 11.34109314 12.24963806 12.18218628 12.28366089 13.04876709 C12.609993 22.25769232 12.65511216 31.47223778 12.63427734 40.68603516 C12.62883139 43.55506478 12.63430877 46.4239433 12.640625 49.29296875 C12.63996543 51.14322951 12.6386868 52.99349017 12.63671875 54.84375 C12.63874298 55.68858948 12.64076721 56.53342896 12.64285278 57.40386963 C12.6242548 62.11825044 12.46324105 66.63985385 11.50390625 71.265625 C8.61974742 72.70770441 6.08669097 72.35957387 2.87890625 72.328125 C1.69039062 72.31910156 0.501875 72.31007813 -0.72265625 72.30078125 C-2.09550781 72.28337891 -2.09550781 72.28337891 -3.49609375 72.265625 C-4.61708772 68.90264308 -4.62988266 66.35121917 -4.64135742 62.80639648 C-4.64471603 62.15568176 -4.64807465 61.50496704 -4.65153503 60.83453369 C-4.66102858 58.6852426 -4.66298706 56.53602949 -4.6640625 54.38671875 C-4.6672752 52.89364083 -4.67063928 51.40056322 -4.67414856 49.90748596 C-4.68013512 46.77954376 -4.68198885 43.65162917 -4.68139648 40.52368164 C-4.68129466 36.50958078 -4.69496971 32.495656 -4.71216869 28.48159695 C-4.72326683 25.39930909 -4.7253164 22.31706418 -4.72478676 19.23475838 C-4.7259693 17.75433811 -4.73040638 16.27391681 -4.73811913 14.79351616 C-4.7478791 12.72736991 -4.74505758 10.66161102 -4.73901367 8.59545898 C-4.74043869 7.41870102 -4.74186371 6.24194305 -4.74333191 5.02952576 C-4.41794353 1.39197567 -3.67189239 0.39074911 0 0 Z " fill="#FCFCFC" transform="translate(624.49609375,132.734375)"/>
<path d="M0 0 C3 0.0625 3 0.0625 6 1 C7.25 3.5 7.25 3.5 8 6 C8.66 6.33 9.32 6.66 10 7 C10.33 5.02 10.66 3.04 11 1 C14.01031744 0.06576355 14.86650268 -0.04449911 18 1 C18.94921875 2.9609375 18.94921875 2.9609375 19.6875 5.375 C19.93886719 6.16648438 20.19023438 6.95796875 20.44921875 7.7734375 C21 10 21 10 21 13 C23.31 13 25.62 13 28 13 C29.44672103 10.10655794 29.38056583 7.19460336 29.62109375 3.99609375 C29.80865234 3.00802734 29.80865234 3.00802734 30 2 C33.452088 0.273956 37.21841567 0.64016066 41 1 C44.26785533 2.3210479 45.54455456 3.21923639 47.3125 6.25 C48.30069711 10.20278843 49.08224999 14.15380885 46.9375 17.8125 C41.59166115 21.08898188 36.06431976 21.30835524 30 21 C29.34 20.67 28.68 20.34 28 20 C26.33385392 19.95834635 24.66614608 19.95834635 23 20 C22.34 20 21.68 20 21 20 C19.66216607 20.31478446 18.32796291 20.64587656 17 21 C16.01 19.35 15.02 17.7 14 16 C13.01 17.32 12.02 18.64 11 20 C10.05125 19.835 9.1025 19.67 8.125 19.5 C5.19831099 18.9473365 5.19831099 18.9473365 3 19 C2.34 19.66 1.68 20.32 1 21 C-2.53571429 20.46428571 -2.53571429 20.46428571 -4 19 C-4.3693209 13.21397255 -3.64880289 7.56725419 -2 2 C-1.34 1.34 -0.68 0.68 0 0 Z M35 7 C35.33 9.31 35.66 11.62 36 14 C37.65 14 39.3 14 41 14 C41.4 10.16875 41.4 10.16875 39.6875 8.25 C37.9482276 6.70238622 37.9482276 6.70238622 35 7 Z " fill="#FAFAFA" transform="translate(619,214)"/>
<path d="M0 0 C2.375 1.5625 2.375 1.5625 4 4 C4.80730018 8.01178761 4.61584485 10.97359191 2.5 14.5 C-1.02640809 16.61584485 -3.98821239 16.80730018 -8 16 C-11.0261912 13.9825392 -11.81051292 12.54477536 -13 9.125 C-13 4.96389658 -11.6357456 3.14825169 -9 0 C-5.41563853 -1.19478716 -3.63093708 -0.96330984 0 0 Z " fill="#FAFAFA" transform="translate(606,189)"/>
<path d="M0 0 C2.14637492 1.60361345 2.90001894 2.46774789 3.3984375 5.12109375 C3.36400053 8.52461382 3.2388294 11.34719965 2.0625 14.5625 C-0.86832525 16.60519639 -3.31795876 16.61537735 -6.8359375 16.44921875 C-9 16 -9 16 -11.5625 13.875 C-13.25419769 10.49160462 -13.62195931 8.73175586 -13 5 C-9.06764917 -0.89852625 -6.88281267 -1.44901319 0 0 Z " fill="#FCFCFC" transform="translate(658,189)"/>
<path d="" fill="#FFFFFF" transform="translate(0,0)"/>
<path d="" fill="#FFFFFF" transform="translate(0,0)"/>
<path d="" fill="#FFFFFF" transform="translate(0,0)"/>
<path d="" fill="#FFFFFF" transform="translate(0,0)"/>
<path d="" fill="#FFFFFF" transform="translate(0,0)"/>
<path d="" fill="#FFFFFF" transform="translate(0,0)"/>
<path d="" fill="#FFFFFF" transform="translate(0,0)"/>
<path d="" fill="#FFFFFF" transform="translate(0,0)"/>
<path d="" fill="#FFFFFF" transform="translate(0,0)"/>
<path d="" fill="#FFFFFF" transform="translate(0,0)"/>
<path d="" fill="#FFFFFF" transform="translate(0,0)"/>
<path d="" fill="#FFFFFF" transform="translate(0,0)"/>
<path d="" fill="#FFFFFF" transform="translate(0,0)"/>
<path d="" fill="#FFFFFF" transform="translate(0,0)"/>
<path d="" fill="#FFFFFF" transform="translate(0,0)"/>
<path d="" fill="#FFFFFF" transform="translate(0,0)"/>
<path d="" fill="#FFFFFF" transform="translate(0,0)"/>
<path d="" fill="#FFFFFF" transform="translate(0,0)"/>
<path d="" fill="#FFFFFF" transform="translate(0,0)"/>
<path d="" fill="#FFFFFF" transform="translate(0,0)"/>
<path d="" fill="#FFFFFF" transform="translate(0,0)"/>
<path d="" fill="#FFFFFF" transform="translate(0,0)"/>
<path d="" fill="#FFFFFF" transform="translate(0,0)"/>
<path d="" fill="#FFFFFF" transform="translate(0,0)"/>
<path d="" fill="#FFFFFF" transform="translate(0,0)"/>
<path d="" fill="#FFFFFF" transform="translate(0,0)"/>
<path d="" fill="#FFFFFF" transform="translate(0,0)"/>
<path d="" fill="#FFFFFF" transform="translate(0,0)"/>
<path d="" fill="#FFFFFF" transform="translate(0,0)"/>
<path d="" fill="#FFFFFF" transform="translate(0,0)"/>
<path d="" fill="#FFFFFF" transform="translate(0,0)"/>
<path d="" fill="#FFFFFF" transform="translate(0,0)"/>
<path d="" fill="#FFFFFF" transform="translate(0,0)"/>
<path d="" fill="#FFFFFF" transform="translate(0,0)"/>
<path d="" fill="#FFFFFF" transform="translate(0,0)"/>
<path d="" fill="#FFFFFF" transform="translate(0,0)"/>
<path d="" fill="#FFFFFF" transform="translate(0,0)"/>
<path d="" fill="#FFFFFF" transform="translate(0,0)"/>
<path d="" fill="#FFFFFF" transform="translate(0,0)"/>
<path d="" fill="#FFFFFF" transform="translate(0,0)"/>
<path d="" fill="#FFFFFF" transform="translate(0,0)"/>
<path d="" fill="#FFFFFF" transform="translate(0,0)"/>
<path d="" fill="#FFFFFF" transform="translate(0,0)"/>
<path d="" fill="#FFFFFF" transform="translate(0,0)"/>
<path d="" fill="#FFFFFF" transform="translate(0,0)"/>
<path d="" fill="#FFFFFF" transform="translate(0,0)"/>
<path d="" fill="#FFFFFF" transform="translate(0,0)"/>
<path d="" fill="#FFFFFF" transform="translate(0,0)"/>
<path d="" fill="#FFFFFF" transform="translate(0,0)"/>
<path d="" fill="#FFFFFF" transform="translate(0,0)"/>
<path d="" fill="#FFFFFF" transform="translate(0,0)"/>
<path d="" fill="#FFFFFF" transform="translate(0,0)"/>
<path d="" fill="#FFFFFF" transform="translate(0,0)"/>
<path d="" fill="#FFFFFF" transform="translate(0,0)"/>
<path d="" fill="#FFFFFF" transform="translate(0,0)"/>
<path d="" fill="#FFFFFF" transform="translate(0,0)"/>
<path d="" fill="#FFFFFF" transform="translate(0,0)"/>
<path d="" fill="#FFFFFF" transform="translate(0,0)"/>
<path d="" fill="#FFFFFF" transform="translate(0,0)"/>
<path d="" fill="#FFFFFF" transform="translate(0,0)"/>
<path d="" fill="#FFFFFF" transform="translate(0,0)"/>
<path d="" fill="#FFFFFF" transform="translate(0,0)"/>
<path d="" fill="#FFFFFF" transform="translate(0,0)"/>
<path d="" fill="#FFFFFF" transform="translate(0,0)"/>
<path d="" fill="#FFFFFF" transform="translate(0,0)"/>
<path d="" fill="#FFFFFF" transform="translate(0,0)"/>
<path d="" fill="#FFFFFF" transform="translate(0,0)"/>
<path d="" fill="#FFFFFF" transform="translate(0,0)"/>
<path d="" fill="#FFFFFF" transform="translate(0,0)"/>
<path d="" fill="#FFFFFF" transform="translate(0,0)"/>
<path d="" fill="#FFFFFF" transform="translate(0,0)"/>
<path d="" fill="#FFFFFF" transform="translate(0,0)"/>
<path d="" fill="#FFFFFF" transform="translate(0,0)"/>
<path d="" fill="#FFFFFF" transform="translate(0,0)"/>
<path d="" fill="#FFFFFF" transform="translate(0,0)"/>
<path d="" fill="#FFFFFF" transform="translate(0,0)"/>
</svg>
